<svg xmlns="http://www.w3.org/2000/svg" viewBox="0 0 800 800">
<g id="line1">
<path d="M23.71,371.48H508.27a42,42,0,0,1,42,42V530a42,42,0,0,1-42,42H23.71A49.12,49.12,0,0,1-25.41,522.9V420.6a49.12,49.12,0,0,1,49.12-49.12Z" transform="translate(-209.33 734.17) rotate(-90)" style="fill:#00a69c"/>
</g>
<g id="line2"><path d="M712.51,575V723.72a13.91,13.91,0,0,0,7.16,12.17l27.67,15.36a4.44,4.44,0,0,1-2.15,8.33H543.45A31.49,31.49,0,0,1,512,728.1V467.26a31.49,31.49,0,0,1,31.48-31.48h29.89A139.17,139.17,0,0,1,712.51,575Z" style="fill:#00a69c"/></g><g id="shadow"><polygon points="162.15 191.15 362.69 191.15 362.69 305.25 162.15 471.75 162.15 191.15" style="fill:#066c62"/></g>
<g id="top">
<path d="M99.48,40.42H563.1a49.14,49.14,0,0,1,49.14,49.14V191.82A49.14,49.14,0,0,1,563.1,241H99.48a49.12,49.12,0,0,1-49.12-49.12V89.54A49.12,49.12,0,0,1,99.48,40.42Z" style="fill:#00a69c"/>
<path d="M712.51,179.59V287.93a13.92,13.92,0,0,1-8.71,12.9L543.45,365.59A31.48,31.48,0,0,1,512,334.11V71.9a31.49,31.49,0,0,1,31.48-31.48h29.89A139.17,139.17,0,0,1,712.51,179.59Z" style="fill:#00a69c"/>
</g>
</svg>