<svg xmlns="http://www.w3.org/2000/svg" viewBox="0 0 1490.45 800">

<g id="word">
	<path style="fill:#00a69c" class="st0" d="M115,255.6c-1.9,16.5-2.8,33-2.8,49.6v12.5h16.9c19,0,27.8-0.4,40.7-2.4v47.6c-13.3-2-21-2.4-39.5-2.4h-18.1
		v125c0,19.8,7.3,27,26.6,27c10.5,0,16.9-2,29.5-8.9l7.3,42.8c-17.3,6.5-29.5,8.5-50.4,8.5c-46.4,0-64.9-16.5-64.9-58.9V360.5H44.9
		c-14.9,0-22.6,0.4-35.9,2.4v-47.6c11.7,2,19.4,2.4,36.3,2.4h14.9v-12.5c-0.1-16.6-1-33.1-2.8-49.6L115,255.6z"/>
	<path style="fill:#00a69c" class="st0" d="M338.5,523c-16.1,15.3-26.2,21-42.8,25.4c-12.2,3.3-24.9,4.9-37.5,4.8c-49.2,0-79.1-25.4-79.1-67.8
		c0-28.2,17.8-53.6,45.6-65.4c26.2-10.9,56.1-14.9,113.8-16.1v-20.5c0-23.4-15.7-35.5-46.4-35.5c-16.1,0-32.7,4.4-42,11.7
		c-7.7,5.6-11.3,11.3-16.1,25.8l-51.6-9.3c9.3-23.4,16.5-33.9,31.9-44.8c19.8-14.5,42.3-20.6,77-20.6c38.7,0,62.1,6.9,79.5,23.8
		c13.7,12.9,19,28.2,19,55.7v108.5c0,21.4,0.8,32.3,3.2,50.4h-54.4V523z M338.5,439.1c-77,1.6-107.3,14.9-107.3,46.4
		c0,19,14.1,30.7,36.7,30.7c21.4,0,42.3-8.1,56.1-21.4c9.7-9.7,14.5-21.4,14.5-35.5V439.1z"/>
	<path style="fill:#00a69c" class="st0" d="M575.7,368.5c-17-4.8-25.4-6.5-35.9-6.5c-20.2,0-35.5,6.5-46.8,19.8c-10.1,11.7-14.1,21-16.5,40.3v74.6
		c-0.1,17.5,0.8,35,2.8,52.4h-57.7c2-17.4,2.9-34.9,2.8-52.4V370.1c0-24.6-0.4-35.9-2.8-52.4h54.9v37.9
		c14.5-28.6,39.5-42.4,75.8-42.4c9.7,0,19.4,1.2,37.5,4.4L575.7,368.5z"/>
	<path style="fill:#00a69c" class="st0" d="M589.4,433.9c0-75,46.8-123,120.2-123c73,0,119.4,47.6,119.4,122.2s-47.2,123.8-119,123.8
		C636.2,556.9,589.4,509.3,589.4,433.9z M641.4,433.9c0,49.6,25.8,80.3,67.8,80.3s67.8-30.2,67.8-79.5c0-52-24.6-81.9-67.4-81.9
		C667.2,352.8,641.4,383.5,641.4,433.9L641.4,433.9z"/>
	<path style="fill:#00a69c" class="st0" d="M906.8,228.2c-2,15.3-2.8,29.5-2.8,52.8v132.7l60.5-60.1c18.6-17.8,25.4-25.8,31.9-35.9h75.4
		c-23,20.6-23,20.6-40.3,37.1l-57.3,54.5l68.2,93.2c27.4,37.5,27.4,37.5,36.7,46.8h-71.8c-4.8-12.9-9.7-21-26.6-45.6l-43.6-63.7
		L904,471.4v26.2c0,26.2,0.4,35.9,2.8,51.6H850c2-16.5,2.8-30.2,2.8-52.4V281c0-24.2-0.8-37.5-2.8-52.8H906.8z"/>
	<path style="fill:#00a69c" class="st0" d="M1082.3,433.9c0-75,46.8-123,120.2-123c73,0,119.4,47.6,119.4,122.2s-47.2,123.8-119,123.8
		C1129.1,556.9,1082.3,509.3,1082.3,433.9z M1134.3,433.9c0,49.6,25.8,80.3,67.8,80.3s67.8-30.3,67.8-79.5c0-52-24.6-81.9-67.4-81.9
		C1160.1,352.8,1134.3,383.5,1134.3,433.9L1134.3,433.9z"/>
</g>
</svg>